<svg width="298" height="36" viewBox="0 0 298 36" fill="none" xmlns="http://www.w3.org/2000/svg">
<circle cx="16" cy="18" r="16" fill="url(#paint0_linear_2075_495)"/>
<path d="M53.306 25.764C52.0887 25.764 50.9593 25.566 49.918 25.17C48.8913 24.774 47.9967 24.2167 47.234 23.498C46.486 22.7793 45.8993 21.936 45.474 20.968C45.0633 20 44.858 18.944 44.858 17.8C44.858 16.656 45.0633 15.6 45.474 14.632C45.8993 13.664 46.4933 12.8207 47.256 12.102C48.0187 11.3833 48.9133 10.826 49.94 10.43C50.9667 10.034 52.0813 9.836 53.284 9.836C54.5013 9.836 55.616 10.034 56.628 10.43C57.6547 10.826 58.542 11.3833 59.29 12.102C60.0527 12.8207 60.6467 13.664 61.072 14.632C61.4973 15.5853 61.71 16.6413 61.71 17.8C61.71 18.944 61.4973 20.0073 61.072 20.99C60.6467 21.958 60.0527 22.8013 59.29 23.52C58.542 24.224 57.6547 24.774 56.628 25.17C55.616 25.566 54.5087 25.764 53.306 25.764ZM53.284 22.728C53.9733 22.728 54.604 22.6107 55.176 22.376C55.7627 22.1413 56.276 21.804 56.716 21.364C57.156 20.924 57.4933 20.4033 57.728 19.802C57.9773 19.2007 58.102 18.5333 58.102 17.8C58.102 17.0667 57.9773 16.3993 57.728 15.798C57.4933 15.1967 57.156 14.676 56.716 14.236C56.2907 13.796 55.7847 13.4587 55.198 13.224C54.6113 12.9893 53.9733 12.872 53.284 12.872C52.5947 12.872 51.9567 12.9893 51.37 13.224C50.798 13.4587 50.292 13.796 49.852 14.236C49.412 14.676 49.0673 15.1967 48.818 15.798C48.5833 16.3993 48.466 17.0667 48.466 17.8C48.466 18.5187 48.5833 19.186 48.818 19.802C49.0673 20.4033 49.4047 20.924 49.83 21.364C50.27 21.804 50.7833 22.1413 51.37 22.376C51.9567 22.6107 52.5947 22.728 53.284 22.728ZM71.3405 13.488C72.2792 13.488 73.1152 13.6787 73.8485 14.06C74.5965 14.4267 75.1832 14.9987 75.6085 15.776C76.0338 16.5387 76.2465 17.5213 76.2465 18.724V25.5H72.8145V19.252C72.8145 18.2987 72.6018 17.5947 72.1765 17.14C71.7658 16.6853 71.1792 16.458 70.4165 16.458C69.8738 16.458 69.3825 16.5753 68.9425 16.81C68.5172 17.03 68.1798 17.3747 67.9305 17.844C67.6958 18.3133 67.5785 18.9147 67.5785 19.648V25.5H64.1465V13.664H67.4245V16.942L66.8085 15.952C67.2338 15.16 67.8425 14.5513 68.6345 14.126C69.4265 13.7007 70.3285 13.488 71.3405 13.488ZM79.3574 25.5V9.176H82.7894V25.5H79.3574ZM85.9746 25.5V13.664H89.4066V25.5H85.9746ZM87.6906 12.014C87.06 12.014 86.5466 11.8307 86.1506 11.464C85.7546 11.0973 85.5566 10.6427 85.5566 10.1C85.5566 9.55733 85.7546 9.10267 86.1506 8.736C86.5466 8.36933 87.06 8.186 87.6906 8.186C88.3213 8.186 88.8346 8.362 89.2306 8.714C89.6266 9.05133 89.8246 9.49133 89.8246 10.034C89.8246 10.606 89.6266 11.0827 89.2306 11.464C88.8493 11.8307 88.336 12.014 87.6906 12.014ZM99.7858 13.488C100.724 13.488 101.56 13.6787 102.294 14.06C103.042 14.4267 103.628 14.9987 104.054 15.776C104.479 16.5387 104.692 17.5213 104.692 18.724V25.5H101.26V19.252C101.26 18.2987 101.047 17.5947 100.622 17.14C100.211 16.6853 99.6245 16.458 98.8618 16.458C98.3191 16.458 97.8278 16.5753 97.3878 16.81C96.9625 17.03 96.6251 17.3747 96.3758 17.844C96.1411 18.3133 96.0238 18.9147 96.0238 19.648V25.5H92.5918V13.664H95.8698V16.942L95.2538 15.952C95.6791 15.16 96.2878 14.5513 97.0798 14.126C97.8718 13.7007 98.7738 13.488 99.7858 13.488ZM113.763 25.676C112.413 25.676 111.225 25.412 110.199 24.884C109.187 24.356 108.402 23.6373 107.845 22.728C107.287 21.804 107.009 20.7553 107.009 19.582C107.009 18.394 107.28 17.3453 107.823 16.436C108.38 15.512 109.135 14.7933 110.089 14.28C111.042 13.752 112.12 13.488 113.323 13.488C114.481 13.488 115.523 13.7373 116.447 14.236C117.385 14.72 118.126 15.424 118.669 16.348C119.211 17.2573 119.483 18.35 119.483 19.626C119.483 19.758 119.475 19.912 119.461 20.088C119.446 20.2493 119.431 20.4033 119.417 20.55H109.803V18.548H117.613L116.293 19.142C116.293 18.526 116.168 17.9907 115.919 17.536C115.669 17.0813 115.325 16.7293 114.885 16.48C114.445 16.216 113.931 16.084 113.345 16.084C112.758 16.084 112.237 16.216 111.783 16.48C111.343 16.7293 110.998 17.0887 110.749 17.558C110.499 18.0127 110.375 18.5553 110.375 19.186V19.714C110.375 20.3593 110.514 20.9313 110.793 21.43C111.086 21.914 111.489 22.288 112.003 22.552C112.531 22.8013 113.147 22.926 113.851 22.926C114.481 22.926 115.031 22.8307 115.501 22.64C115.985 22.4493 116.425 22.1633 116.821 21.782L118.647 23.762C118.104 24.378 117.422 24.8547 116.601 25.192C115.779 25.5147 114.833 25.676 113.763 25.676ZM131.54 17.03H138.932V19.89H131.54V17.03ZM131.804 25.5H128.24V10.1H139.878V12.96H131.804V25.5ZM142.049 25.5V13.664H145.481V25.5H142.049ZM143.765 12.014C143.134 12.014 142.621 11.8307 142.225 11.464C141.829 11.0973 141.631 10.6427 141.631 10.1C141.631 9.55733 141.829 9.10267 142.225 8.736C142.621 8.36933 143.134 8.186 143.765 8.186C144.396 8.186 144.909 8.362 145.305 8.714C145.701 9.05133 145.899 9.49133 145.899 10.034C145.899 10.606 145.701 11.0827 145.305 11.464C144.924 11.8307 144.41 12.014 143.765 12.014ZM155.86 13.488C156.799 13.488 157.635 13.6787 158.368 14.06C159.116 14.4267 159.703 14.9987 160.128 15.776C160.553 16.5387 160.766 17.5213 160.766 18.724V25.5H157.334V19.252C157.334 18.2987 157.121 17.5947 156.696 17.14C156.285 16.6853 155.699 16.458 154.936 16.458C154.393 16.458 153.902 16.5753 153.462 16.81C153.037 17.03 152.699 17.3747 152.45 17.844C152.215 18.3133 152.098 18.9147 152.098 19.648V25.5H148.666V13.664H151.944V16.942L151.328 15.952C151.753 15.16 152.362 14.5513 153.154 14.126C153.946 13.7007 154.848 13.488 155.86 13.488ZM171.137 25.5V23.19L170.917 22.684V18.548C170.917 17.8147 170.69 17.2427 170.235 16.832C169.795 16.4213 169.113 16.216 168.189 16.216C167.558 16.216 166.935 16.3187 166.319 16.524C165.718 16.7147 165.204 16.9787 164.779 17.316L163.547 14.918C164.192 14.4633 164.97 14.1113 165.879 13.862C166.788 13.6127 167.712 13.488 168.651 13.488C170.455 13.488 171.856 13.9133 172.853 14.764C173.85 15.6147 174.349 16.942 174.349 18.746V25.5H171.137ZM167.529 25.676C166.605 25.676 165.813 25.522 165.153 25.214C164.493 24.8913 163.987 24.4587 163.635 23.916C163.283 23.3733 163.107 22.7647 163.107 22.09C163.107 21.386 163.276 20.77 163.613 20.242C163.965 19.714 164.515 19.3033 165.263 19.01C166.011 18.702 166.986 18.548 168.189 18.548H171.335V20.55H168.563C167.756 20.55 167.199 20.682 166.891 20.946C166.598 21.21 166.451 21.54 166.451 21.936C166.451 22.376 166.62 22.728 166.957 22.992C167.309 23.2413 167.786 23.366 168.387 23.366C168.959 23.366 169.472 23.234 169.927 22.97C170.382 22.6913 170.712 22.288 170.917 21.76L171.445 23.344C171.196 24.1067 170.741 24.686 170.081 25.082C169.421 25.478 168.57 25.676 167.529 25.676ZM184.649 13.488C185.588 13.488 186.424 13.6787 187.157 14.06C187.905 14.4267 188.492 14.9987 188.917 15.776C189.342 16.5387 189.555 17.5213 189.555 18.724V25.5H186.123V19.252C186.123 18.2987 185.91 17.5947 185.485 17.14C185.074 16.6853 184.488 16.458 183.725 16.458C183.182 16.458 182.691 16.5753 182.251 16.81C181.826 17.03 181.488 17.3747 181.239 17.844C181.004 18.3133 180.887 18.9147 180.887 19.648V25.5H177.455V13.664H180.733V16.942L180.117 15.952C180.542 15.16 181.151 14.5513 181.943 14.126C182.735 13.7007 183.637 13.488 184.649 13.488ZM198.472 25.676C197.196 25.676 196.059 25.4193 195.062 24.906C194.065 24.378 193.28 23.652 192.708 22.728C192.151 21.804 191.872 20.7553 191.872 19.582C191.872 18.394 192.151 17.3453 192.708 16.436C193.28 15.512 194.065 14.7933 195.062 14.28C196.059 13.752 197.196 13.488 198.472 13.488C199.719 13.488 200.804 13.752 201.728 14.28C202.652 14.7933 203.334 15.534 203.774 16.502L201.112 17.932C200.804 17.3747 200.415 16.964 199.946 16.7C199.491 16.436 198.993 16.304 198.45 16.304C197.863 16.304 197.335 16.436 196.866 16.7C196.397 16.964 196.023 17.338 195.744 17.822C195.48 18.306 195.348 18.8927 195.348 19.582C195.348 20.2713 195.48 20.858 195.744 21.342C196.023 21.826 196.397 22.2 196.866 22.464C197.335 22.728 197.863 22.86 198.45 22.86C198.993 22.86 199.491 22.7353 199.946 22.486C200.415 22.222 200.804 21.804 201.112 21.232L203.774 22.684C203.334 23.6373 202.652 24.378 201.728 24.906C200.804 25.4193 199.719 25.676 198.472 25.676ZM205.686 25.5V13.664H209.118V25.5H205.686ZM207.402 12.014C206.771 12.014 206.258 11.8307 205.862 11.464C205.466 11.0973 205.268 10.6427 205.268 10.1C205.268 9.55733 205.466 9.10267 205.862 8.736C206.258 8.36933 206.771 8.186 207.402 8.186C208.032 8.186 208.546 8.362 208.942 8.714C209.338 9.05133 209.536 9.49133 209.536 10.034C209.536 10.606 209.338 11.0827 208.942 11.464C208.56 11.8307 208.047 12.014 207.402 12.014ZM219.563 25.5V23.19L219.343 22.684V18.548C219.343 17.8147 219.115 17.2427 218.661 16.832C218.221 16.4213 217.539 16.216 216.615 16.216C215.984 16.216 215.361 16.3187 214.745 16.524C214.143 16.7147 213.63 16.9787 213.205 17.316L211.973 14.918C212.618 14.4633 213.395 14.1113 214.305 13.862C215.214 13.6127 216.138 13.488 217.077 13.488C218.881 13.488 220.281 13.9133 221.279 14.764C222.276 15.6147 222.775 16.942 222.775 18.746V25.5H219.563ZM215.955 25.676C215.031 25.676 214.239 25.522 213.579 25.214C212.919 24.8913 212.413 24.4587 212.061 23.916C211.709 23.3733 211.533 22.7647 211.533 22.09C211.533 21.386 211.701 20.77 212.039 20.242C212.391 19.714 212.941 19.3033 213.689 19.01C214.437 18.702 215.412 18.548 216.615 18.548H219.761V20.55H216.989C216.182 20.55 215.625 20.682 215.317 20.946C215.023 21.21 214.877 21.54 214.877 21.936C214.877 22.376 215.045 22.728 215.383 22.992C215.735 23.2413 216.211 23.366 216.813 23.366C217.385 23.366 217.898 23.234 218.353 22.97C218.807 22.6913 219.137 22.288 219.343 21.76L219.871 23.344C219.621 24.1067 219.167 24.686 218.507 25.082C217.847 25.478 216.996 25.676 215.955 25.676ZM225.881 25.5V9.176H229.313V25.5H225.881ZM236.947 25.5L243.811 10.1H247.331L254.217 25.5H250.477L244.845 11.904H246.253L240.599 25.5H236.947ZM240.379 22.2L241.325 19.494H249.245L250.213 22.2H240.379ZM259.447 25.676C258.435 25.676 257.46 25.5587 256.521 25.324C255.597 25.0747 254.864 24.7667 254.321 24.4L255.465 21.936C256.008 22.2733 256.646 22.552 257.379 22.772C258.127 22.9773 258.86 23.08 259.579 23.08C260.371 23.08 260.928 22.9847 261.251 22.794C261.588 22.6033 261.757 22.3393 261.757 22.002C261.757 21.7233 261.625 21.518 261.361 21.386C261.112 21.2393 260.774 21.1293 260.349 21.056C259.924 20.9827 259.454 20.9093 258.941 20.836C258.442 20.7627 257.936 20.6673 257.423 20.55C256.91 20.418 256.44 20.2273 256.015 19.978C255.59 19.7287 255.245 19.3913 254.981 18.966C254.732 18.5407 254.607 17.9907 254.607 17.316C254.607 16.568 254.82 15.908 255.245 15.336C255.685 14.764 256.316 14.3167 257.137 13.994C257.958 13.6567 258.941 13.488 260.085 13.488C260.892 13.488 261.713 13.576 262.549 13.752C263.385 13.928 264.082 14.1847 264.639 14.522L263.495 16.964C262.923 16.6267 262.344 16.3993 261.757 16.282C261.185 16.15 260.628 16.084 260.085 16.084C259.322 16.084 258.765 16.1867 258.413 16.392C258.061 16.5973 257.885 16.8613 257.885 17.184C257.885 17.4773 258.01 17.6973 258.259 17.844C258.523 17.9907 258.868 18.108 259.293 18.196C259.718 18.284 260.18 18.3647 260.679 18.438C261.192 18.4967 261.706 18.592 262.219 18.724C262.732 18.856 263.194 19.0467 263.605 19.296C264.03 19.5307 264.375 19.8607 264.639 20.286C264.903 20.6967 265.035 21.2393 265.035 21.914C265.035 22.6473 264.815 23.3 264.375 23.872C263.935 24.4293 263.297 24.8693 262.461 25.192C261.64 25.5147 260.635 25.676 259.447 25.676ZM271.134 25.676C270.122 25.676 269.147 25.5587 268.208 25.324C267.284 25.0747 266.551 24.7667 266.008 24.4L267.152 21.936C267.695 22.2733 268.333 22.552 269.066 22.772C269.814 22.9773 270.548 23.08 271.266 23.08C272.058 23.08 272.616 22.9847 272.938 22.794C273.276 22.6033 273.444 22.3393 273.444 22.002C273.444 21.7233 273.312 21.518 273.048 21.386C272.799 21.2393 272.462 21.1293 272.036 21.056C271.611 20.9827 271.142 20.9093 270.628 20.836C270.13 20.7627 269.624 20.6673 269.11 20.55C268.597 20.418 268.128 20.2273 267.702 19.978C267.277 19.7287 266.932 19.3913 266.668 18.966C266.419 18.5407 266.294 17.9907 266.294 17.316C266.294 16.568 266.507 15.908 266.932 15.336C267.372 14.764 268.003 14.3167 268.824 13.994C269.646 13.6567 270.628 13.488 271.772 13.488C272.579 13.488 273.4 13.576 274.236 13.752C275.072 13.928 275.769 14.1847 276.326 14.522L275.182 16.964C274.61 16.6267 274.031 16.3993 273.444 16.282C272.872 16.15 272.315 16.084 271.772 16.084C271.01 16.084 270.452 16.1867 270.1 16.392C269.748 16.5973 269.572 16.8613 269.572 17.184C269.572 17.4773 269.697 17.6973 269.946 17.844C270.21 17.9907 270.555 18.108 270.98 18.196C271.406 18.284 271.868 18.3647 272.366 18.438C272.88 18.4967 273.393 18.592 273.906 18.724C274.42 18.856 274.882 19.0467 275.292 19.296C275.718 19.5307 276.062 19.8607 276.326 20.286C276.59 20.6967 276.722 21.2393 276.722 21.914C276.722 22.6473 276.502 23.3 276.062 23.872C275.622 24.4293 274.984 24.8693 274.148 25.192C273.327 25.5147 272.322 25.676 271.134 25.676ZM278.84 25.5V13.664H282.272V25.5H278.84ZM280.556 12.014C279.925 12.014 279.412 11.8307 279.016 11.464C278.62 11.0973 278.422 10.6427 278.422 10.1C278.422 9.55733 278.62 9.10267 279.016 8.736C279.412 8.36933 279.925 8.186 280.556 8.186C281.187 8.186 281.7 8.362 282.096 8.714C282.492 9.05133 282.69 9.49133 282.69 10.034C282.69 10.606 282.492 11.0827 282.096 11.464C281.715 11.8307 281.201 12.014 280.556 12.014ZM290.297 25.676C288.904 25.676 287.818 25.324 287.041 24.62C286.264 23.9013 285.875 22.838 285.875 21.43V11.046H289.307V21.386C289.307 21.8847 289.439 22.2733 289.703 22.552C289.967 22.816 290.326 22.948 290.781 22.948C291.324 22.948 291.786 22.8013 292.167 22.508L293.091 24.928C292.739 25.1773 292.314 25.368 291.815 25.5C291.331 25.6173 290.825 25.676 290.297 25.676ZM284.049 16.568V13.928H292.255V16.568H284.049Z" fill="white"/>
<defs>
<linearGradient id="paint0_linear_2075_495" x1="16" y1="2" x2="16" y2="34" gradientUnits="userSpaceOnUse">
<stop stop-color="#F258FF"/>
<stop offset="1" stop-color="#6F22C8"/>
</linearGradient>
</defs>
</svg>
