<svg width="60" height="60" viewBox="0 0 60 60" fill="none" xmlns="http://www.w3.org/2000/svg">
<path d="M45.7845 31.7646H36.8352L35.6587 29.9999L36.8352 28.2352H45.7845L46.961 29.9411L45.7845 31.7646Z" fill="#FF3D7D"/>
<path d="M14.2152 31.7646H23.1645L24.341 30.0784L23.1645 28.2352H14.2152L13.0387 30.1961L14.2152 31.7646Z" fill="#FF6B6B"/>
<path d="M24.7061 7.67529V5.29412C24.7061 2.37518 27.0813 0 30.0001 0L31.1766 3.83765L30.0001 7.05882L27.4673 8.53024L24.7061 7.67529Z" fill="#FF6B6B"/>
<path d="M30 7.05882V0C32.9368 0 35.2941 2.37953 35.2941 5.29412V7.67529L32.4388 8.51929L30 7.05882Z" fill="#FF3D7D"/>
<path d="M30.0001 52.9412L31.1766 56.1624L30.0001 60C27.0813 60 24.7061 57.6247 24.7061 54.7059V52.3247L27.7632 51.5043L30.0001 52.9412Z" fill="#FF6B6B"/>
<path d="M30 52.9411V59.9999C32.9263 59.9999 35.2941 57.6321 35.2941 54.7058V52.3246L32.2323 51.5048L30 52.9411Z" fill="#FF3D7D"/>
<path d="M42.0361 10.4764L43.7255 8.78702C45.7942 6.71832 49.1431 6.71761 51.2125 8.78702C51.7125 9.28702 52.1009 9.8682 52.3631 10.5036C53.1461 12.3955 52.7929 14.6937 51.2125 16.2742L49.5233 17.9635L45.8819 15.4987L42.0361 10.4764Z" fill="#FF3D7D"/>
<path d="M17.9638 49.5236L16.2744 51.213C14.2031 53.2844 10.8512 53.2794 8.78735 51.213C6.71842 49.144 6.71795 45.7952 8.78735 43.7258L10.4767 42.0365L14.1181 44.5013L17.9638 49.5236Z" fill="#FF6B6B"/>
<path d="M52.3248 35.2942H54.7059C57.6323 35.2942 60 32.9263 60 30.0001C60 27.0811 57.6247 24.7059 54.7059 24.7059H52.3248L51.1483 30.353L52.3248 35.2942Z" fill="#FF3D7D"/>
<path d="M7.67524 35.2942H5.29408C2.36775 35.2942 0 32.9263 0 30.0001C0 27.0811 2.37528 24.7059 5.29408 24.7059H7.67524L8.8517 30.0001L7.67524 35.2942Z" fill="#FF6B6B"/>
<path d="M49.5233 42.0365L51.2125 43.7258C53.2815 45.7947 53.2819 49.1436 51.2125 51.213C49.1506 53.2776 45.7988 53.2863 43.7255 51.213L42.0361 49.5236L46.162 44.2212L49.5233 42.0365Z" fill="#FF3D7D"/>
<path d="M10.4767 17.9634L8.78735 16.2741C6.71842 14.2052 6.71795 10.8564 8.78735 8.78697C10.8509 6.72238 14.2097 6.72238 16.2744 8.78697L17.9638 10.4764L14.3226 15.2941L10.4767 17.9634Z" fill="#FF6B6B"/>
<path d="M30 14.1176L31.1765 18.6099L30 22.9412L29.2159 24.217L28.2354 23.1647V14.2153L29.1177 12.99L30 14.1176Z" fill="#FF6B6B"/>
<path d="M30 14.1176V22.9412L30.8823 24.2294L31.7647 23.1647V14.2153L30.8823 12.99L30 14.1176Z" fill="#FF3D7D"/>
<path d="M30 45.8823L31.1765 41.9225L30 37.0588L29.1248 35.7715L28.2354 36.8352V45.7847L29.1177 47.0099L30 45.8823Z" fill="#FF6B6B"/>
<path d="M30 45.8824V37.0589L30.8823 35.7706L31.7647 36.8353V45.7848L30.6451 47.0231L30 45.8824Z" fill="#FF3D7D"/>
<path d="M14.1175 30C14.1175 21.2425 21.2421 14.1177 29.9997 14.1177L31.1762 10.1177L29.9997 7.05884C17.3501 7.05884 7.05872 17.3503 7.05872 30C7.05872 42.6498 17.3501 52.9412 29.9997 52.9412L31.1762 49.1188L29.9997 45.8824C21.2421 45.8824 14.1175 38.7575 14.1175 30Z" fill="#FEE05B"/>
<path d="M30 7.05884V14.1177C38.7575 14.1177 45.8822 21.2425 45.8822 30C45.8822 38.7575 38.7575 45.8824 30 45.8824V52.9412C42.6497 52.9412 52.941 42.6498 52.941 30C52.941 17.3503 42.6497 7.05884 30 7.05884Z" fill="#FEC258"/>
<path d="M22.9414 30C22.9414 33.8922 26.108 37.0588 30.0002 37.0588L31.1766 30.0009L30.0002 22.9412C26.108 22.9412 22.9414 26.1078 22.9414 30Z" fill="#FEE05B"/>
<path d="M30 22.9412V37.0588C33.8922 37.0588 37.0588 33.8922 37.0588 30C37.0588 26.1078 33.8922 22.9412 30 22.9412Z" fill="#FEC258"/>
</svg>
