<svg width="61" height="73" viewBox="0 0 61 73" fill="none" xmlns="http://www.w3.org/2000/svg">
<path d="M42.0976 1.46769L45.1865 6.92659L50.5614 9.9295L55.3347 6.34291L59.6183 0.874768C58.9532 0.818463 51.4528 -1.40767 42.0976 1.46769Z" fill="#FF6B6B"/>
<path d="M59.6184 0.874756L50.5615 9.92949L53.4072 15.1453L59.0254 18.3914C61.9343 8.93211 59.6797 1.60021 59.6184 0.874756Z" fill="#FF3D7D"/>
<path d="M12.8726 12.444L20.0136 19.5832L21.6879 18.2901L22.2639 16.8431L19.8824 12.0915L15.3681 9.94897L12.8726 12.444Z" fill="#FF3D7D"/>
<path d="M30.2169 8.03123L19.8731 5.4458L15.3687 9.94905L22.2645 16.8432L26.1515 14.8429L30.2169 8.03123Z" fill="#FF6B6B"/>
<path d="M48.0856 47.648L50.5812 45.1531L47.821 41.2079L43.6585 38.2319L41.7669 39.002L40.9448 40.5087L48.0856 47.648Z" fill="#C1126B"/>
<path d="M55.0853 40.6496L52.4994 30.3081L45.8117 34.4984L43.6581 38.2319L50.5809 45.153L55.0853 40.6496Z" fill="#FF3D7D"/>
<path d="M16.1019 31.847L18.6205 29.329L12 35.9479L18.2878 42.2344L21.5156 40.6838L22.3899 38.1332L20.572 33.9451L16.1019 31.847Z" fill="#613D5C"/>
<path d="M22.8908 31.3461L18.6206 29.329L16.1021 31.847L22.3901 38.1332L23.7327 37.684L24.9084 35.6155L22.8908 31.3461Z" fill="#FF6B6B"/>
<path d="M18.2871 42.2351L24.575 48.5216L28.6775 44.4201L26.4313 39.8035L22.3897 38.1337L18.2871 42.2351Z" fill="#4B2746"/>
<path d="M29.4442 37.8983L24.9083 35.6156L22.3896 38.1338L28.6774 44.4202L31.1962 41.9019L29.4442 37.8983Z" fill="#FF3D7D"/>
<path d="M42.0971 1.46765C35.6991 3.43467 30.0386 7.27564 25.8467 12.5088L14.9395 25.6491L24.8885 35.5958L39.6911 23.1676L50.5611 9.92934L42.0971 1.46765Z" fill="#F2F2FC"/>
<path d="M24.8891 35.5958L34.8383 45.5425L47.9817 34.638C53.2068 30.4549 57.0544 24.8 59.0257 18.3913L50.5617 9.92932L24.8891 35.5958Z" fill="#E2D9FB"/>
<path d="M0.509277 47.4268L9.47777 38.4583L11.9922 40.9727L3.02368 49.9412L0.509277 47.4268Z" fill="#E2D9FB"/>
<path d="M10.5669 57.486L19.5364 48.5185L22.0512 51.0327L13.0817 60.0002L10.5669 57.486Z" fill="#C7C1DC"/>
<path d="M14.5139 43.4926L3.02783 54.976L4.28534 56.2332L10.7651 51.0123L15.7716 44.7498L14.5139 43.4926Z" fill="#E2D9FB"/>
<path d="M4.28027 56.226L15.7633 44.7429L17.0205 46L5.53743 57.4831L4.28027 56.226Z" fill="#C7C1DC"/>
<path d="M32.9554 17.4731C30.1752 20.2526 30.1747 24.7514 32.9552 27.5313L39.4842 23.3746L43.0159 17.4731C40.2355 14.6939 35.736 14.6932 32.9554 17.4731Z" fill="#613D5C"/>
<path d="M43.0158 17.4731L32.955 27.5313L32.9551 27.5314C35.735 30.3107 40.2351 30.3114 43.0158 27.5314C45.7896 24.7584 45.7896 20.2462 43.0158 17.4731Z" fill="#613D5C"/>
<path d="M35.4704 19.9878C34.0802 21.3777 34.0801 23.6269 35.4703 25.0169L39.1284 23.7303L40.5005 19.9877C39.1101 18.5978 36.8604 18.5978 35.4704 19.9878Z" fill="#7ED8F6"/>
<path d="M40.501 19.9877L35.4706 25.0169C36.8604 26.4066 39.1106 26.4071 40.5011 25.0169C41.8878 23.6303 41.8877 21.3743 40.501 19.9877Z" fill="#6AA9FF"/>
</svg>
