<svg width="60" height="60" viewBox="0 0 60 60" fill="none" xmlns="http://www.w3.org/2000/svg">
<path d="M28.2353 28.2352V41.5048L21.7482 46.6944L21.9991 48.63L23.6446 49.6973L30 44.6128L31.1765 36.902L30 28.2353L29.1471 27.0588L28.2353 28.2352Z" fill="#F2F2FC"/>
<path d="M31.7649 41.5048V28.2352L30.9708 27.0588L30.0002 28.2353V44.6128L36.3555 49.6971L38.3055 48.7886L38.2518 46.6942L31.7649 41.5048Z" fill="#E2D9FB"/>
<path d="M24.7425 11.7637C20.5528 13.7423 17.647 18.0088 17.647 22.9411V24.7058L23.6176 25.9705L30 24.7058L31.1765 21.1764L30 14.1176L27.352 11.7555L24.7425 11.7637Z" fill="#FEE05B"/>
<path d="M30.0002 14.1176V24.7058L35.7061 25.6764L42.3531 24.7058V22.9411C42.3531 18.0099 39.4487 13.7442 35.2605 11.765L32.74 11.7158L30.0002 14.1176Z" fill="#FEC258"/>
<path d="M22.9415 7.05882C22.9415 10.9511 26.1081 14.1176 30.0004 14.1176L31.7651 7.05882L30.0004 0C26.1081 0 22.9415 3.16659 22.9415 7.05882Z" fill="#FECEC1"/>
<path d="M30.0002 0V14.1176C33.8924 14.1176 37.059 10.9511 37.059 7.05882C37.059 3.16659 33.8924 0 30.0002 0Z" fill="#F7AD9E"/>
<path d="M7.09554 43.5284C2.90577 45.5071 0 49.7734 0 54.7059V56.4706L6.76472 57.853L12.353 56.4706L13.5294 52.9412L12.353 45.8824L9.70495 43.5204L7.09554 43.5284Z" fill="#BEE75E"/>
<path d="M12.3531 45.8824V56.4706L17.6473 57.7059L24.7061 56.4706V54.7059C24.7061 49.7746 21.8016 45.5089 17.6135 43.5298L15.0929 43.4806L12.3531 45.8824Z" fill="#5BC980"/>
<path d="M5.29407 38.8235C5.29407 42.7157 8.46066 45.8823 12.3529 45.8823L14.1176 38.8235L12.3529 31.7646C8.46066 31.7646 5.29407 34.9312 5.29407 38.8235Z" fill="#FEDFD0"/>
<path d="M12.3531 31.7646V45.8823C16.2454 45.8823 19.412 42.7157 19.412 38.8235C19.412 34.9312 16.2454 31.7646 12.3531 31.7646Z" fill="#FECEC1"/>
<path d="M42.3895 43.5284C38.1998 45.5071 35.2941 49.7734 35.2941 54.7059V56.4706L42.3137 57.4903L47.647 56.4706L48.8235 52.9412L47.647 45.8824L44.999 43.5204L42.3895 43.5284Z" fill="#7ED8F6"/>
<path d="M47.6471 45.8824V56.4706L53 57.7059L60.0001 56.4706V54.7059C60.0001 49.7746 57.0956 45.5089 52.9075 43.5298L50.3869 43.4806L47.6471 45.8824Z" fill="#6AA9FF"/>
<path d="M40.5886 38.8235C40.5886 42.7157 43.7552 45.8823 47.6474 45.8823L49.4121 38.8235L47.6474 31.7646C43.7552 31.7646 40.5886 34.9312 40.5886 38.8235Z" fill="#FEDFD0"/>
<path d="M47.6471 31.7646V45.8823C51.5393 45.8823 54.7059 42.7157 54.7059 38.8235C54.7059 34.9312 51.5393 31.7646 47.6471 31.7646Z" fill="#FECEC1"/>
<path d="M0 56.4706V60H12.353L13.5294 58.2353L12.353 56.4706H0Z" fill="#5BC980"/>
<path d="M12.3531 56.4706H24.7061V60H12.3531V56.4706Z" fill="#00A78E"/>
<path d="M35.2941 56.4706V60H47.647L48.8235 58.2353L47.647 56.4706H35.2941Z" fill="#6AA9FF"/>
<path d="M47.6471 56.4706H60.0001V60H47.6471V56.4706Z" fill="#4987EA"/>
<path d="M17.647 24.7059V28.2353H30L31.1765 26.4706L30 24.7059H17.647Z" fill="#FEC258"/>
<path d="M30.0002 24.7059H42.3531V28.2353H30.0002V24.7059Z" fill="#FD996B"/>
</svg>
