<svg width="100" height="15" viewBox="0 0 100 15" fill="none" xmlns="http://www.w3.org/2000/svg">
<path d="M15.3584 5.46361C15.2597 5.15808 14.9906 4.94176 14.6734 4.91287L10.3476 4.51742L8.63795 0.4872C8.51173 0.191104 8.22453 0 7.90486 0C7.58519 0 7.29787 0.191104 7.17245 0.4872L5.46284 4.51742L1.1363 4.91287C0.81914 4.94234 0.550574 5.15865 0.451334 5.46361C0.352666 5.76915 0.443788 6.10427 0.683657 6.3161L3.95366 9.20326L2.9895 13.4792C2.91896 13.7936 3.04015 14.1187 3.29923 14.3072C3.43848 14.4091 3.60209 14.46 3.76627 14.46C3.90736 14.46 4.04856 14.4222 4.17467 14.3463L7.90486 12.1004L11.6344 14.3463C11.908 14.5109 12.252 14.4958 12.5105 14.3072C12.7696 14.1187 12.8908 13.7936 12.8202 13.4792L11.8561 9.20326L15.1261 6.3161C15.3658 6.10427 15.4571 5.76984 15.3584 5.46361Z" fill="#FD4C5C"/>
<path d="M36.3462 5.46361C36.2475 5.15808 35.9784 4.94176 35.6612 4.91287L31.3354 4.51742L29.6257 0.4872C29.4995 0.191104 29.2123 0 28.8927 0C28.573 0 28.2857 0.191104 28.1602 0.4872L26.4506 4.51742L22.1241 4.91287C21.8069 4.94234 21.5384 5.15865 21.4391 5.46361C21.3405 5.76915 21.4316 6.10427 21.6714 6.3161L24.9415 9.20326L23.9773 13.4792C23.9068 13.7936 24.0279 14.1187 24.287 14.3072C24.4263 14.4091 24.5899 14.46 24.7541 14.46C24.8952 14.46 25.0364 14.4222 25.1625 14.3463L28.8927 12.1004L32.6222 14.3463C32.8958 14.5109 33.2398 14.4958 33.4983 14.3072C33.7574 14.1187 33.8786 13.7936 33.808 13.4792L32.8438 9.20326L36.1139 6.3161C36.3536 6.10427 36.4448 5.76984 36.3462 5.46361Z" fill="#FD4C5C"/>
<path d="M57.3335 5.46361C57.2348 5.15808 56.9657 4.94176 56.6485 4.91287L52.3227 4.51742L50.6131 0.4872C50.4868 0.191104 50.1996 0 49.88 0C49.5603 0 49.273 0.191104 49.1475 0.4872L47.4379 4.51742L43.1114 4.91287C42.7942 4.94234 42.5257 5.15865 42.4264 5.46361C42.3278 5.76915 42.4189 6.10427 42.6588 6.3161L45.9288 9.20326L44.9646 13.4792C44.8941 13.7936 45.0152 14.1187 45.2743 14.3072C45.4136 14.4091 45.5772 14.46 45.7414 14.46C45.8825 14.46 46.0237 14.4222 46.1498 14.3463L49.88 12.1004L53.6095 14.3463C53.8831 14.5109 54.2271 14.4958 54.4856 14.3072C54.7447 14.1187 54.8659 13.7936 54.7953 13.4792L53.8312 9.20326L57.1012 6.3161C57.3409 6.10427 57.4321 5.76984 57.3335 5.46361Z" fill="#FD4C5C"/>
<path d="M78.3213 5.46361C78.2226 5.15808 77.9535 4.94176 77.6363 4.91287L73.3104 4.51742L71.6008 0.4872C71.4746 0.191104 71.1874 0 70.8677 0C70.5481 0 70.2608 0.191104 70.1353 0.4872L68.4257 4.51742L64.0992 4.91287C63.782 4.94234 63.5135 5.15865 63.4142 5.46361C63.3156 5.76915 63.4067 6.10427 63.6465 6.3161L66.9166 9.20326L65.9524 13.4792C65.8819 13.7936 66.003 14.1187 66.2621 14.3072C66.4014 14.4091 66.565 14.46 66.7292 14.46C66.8702 14.46 67.0114 14.4222 67.1376 14.3463L70.8677 12.1004L74.5973 14.3463C74.8709 14.5109 75.2149 14.4958 75.4734 14.3072C75.7325 14.1187 75.8536 13.7936 75.7831 13.4792L74.8189 9.20326L78.089 6.3161C78.3287 6.10427 78.4199 5.76984 78.3213 5.46361Z" fill="#FD4C5C"/>
<path d="M99.3086 5.46361C99.2099 5.15808 98.9408 4.94176 98.6236 4.91287L94.2978 4.51742L92.5882 0.4872C92.4619 0.191104 92.1747 0 91.8551 0C91.5354 0 91.2481 0.191104 91.1226 0.4872L89.413 4.51742L85.0865 4.91287C84.7693 4.94234 84.5008 5.15865 84.4015 5.46361C84.3029 5.76915 84.394 6.10427 84.6339 6.3161L87.9039 9.20326L86.9397 13.4792C86.8692 13.7936 86.9903 14.1187 87.2494 14.3072C87.3887 14.4091 87.5523 14.46 87.7165 14.46C87.8576 14.46 87.9988 14.4222 88.1249 14.3463L91.8551 12.1004L95.5846 14.3463C95.8582 14.5109 96.2022 14.4958 96.4607 14.3072C96.7198 14.1187 96.841 13.7936 96.7704 13.4792L95.8062 9.20326L99.0763 6.3161C99.316 6.10427 99.4072 5.76984 99.3086 5.46361Z" fill="#FD4C5C"/>
</svg>
